<svg fill="#fff" xmlns="http://www.w3.org/2000/svg" viewBox="0 0 90 53.26">
    <g class="picto_offer" data-name="picto_offer">
        <path d="M7.63,8.23a2,2,0,0,0,0,4.09,2,2,0,0,0,2-2A2,2,0,0,0,7.63,8.23Z"/>
        <path d="M82.36,14.35h0A4.07,4.07,0,0,0,85.24,7.4a4.17,4.17,0,0,0-5.76,0,4.07,4.07,0,0,0,2.88,6.94ZM80.92,8.84a2,2,0,1,1,1.45,3.49,2,2,0,0,1-1.45-3.49Z"
        />
        <path d="M89.62,1.22a1,1,0,0,0-.85-.2L71.95,4.8a1,1,0,0,0-.74,1.31l.3.9H59A80.41,80.41,0,0,0,46.36.65,12.42,12.42,0,0,0,42.18,0a14.52,14.52,0,0,0-7.26,1.8c-.83.52-1.91,1.25-3.16,2.13l0,0c-.84-.07-1.65-.13-2.45-.13a30.48,30.48,0,0,0-10.44,2v0a1,1,0,0,0-.77-1L1.24,1A1,1,0,0,0,0,2V33.8a1,1,0,0,0,1,1H8.49a1,1,0,0,0,1-.69l.08-.24c1.41.69,3.41,1.65,5.53,2.66a3.1,3.1,0,0,0,1.27,2,3.17,3.17,0,0,0,3.3.12l2.15,1a3.05,3.05,0,0,0-.16,1.62,3.1,3.1,0,0,0,1.28,2,3.18,3.18,0,0,0,4.32-.77l.63-.9c.72.14,1.47.26,2.22.37l-1.18,1.69A3.1,3.1,0,0,0,29.65,48,3.19,3.19,0,0,0,34,47.25h0l1.31-1.88L36.91,43a5,5,0,0,1,1.54.51l.39.27-2,2.82L35.63,48.4h0a3.13,3.13,0,0,0,.77,4.32A3.19,3.19,0,0,0,40.72,52l3.21-4.59,2.66,1.87,2.77,1.94a5.14,5.14,0,0,0,8.07-4.53A5.26,5.26,0,0,0,63.84,45a5.11,5.11,0,0,0,.92-3.17,5.27,5.27,0,0,0,6.72-1.53A5.09,5.09,0,0,0,72.38,37a5.26,5.26,0,0,0,6.27-1.76,5.09,5.09,0,0,0,.91-3h.35l.63,1.88a1,1,0,0,0,1,.69H89a1,1,0,0,0,1-1V2A1,1,0,0,0,89.62,1.22Zm-82,13.13a4.07,4.07,0,1,1,4.06-4.07,4.06,4.06,0,0,1-4.06,4.07ZM77,34a3.19,3.19,0,0,1-4.33.76L70,32.93,54,21.77a1,1,0,1,0-1.16,1.66L66.61,33l2.48,1.73a3.12,3.12,0,0,1,.72,4.3,3.18,3.18,0,0,1-4.32.76l-9.29-6.5L51.48,30a1,1,0,1,0-1.16,1.66l2.45,1.72,8.73,6.11a3.11,3.11,0,0,1,.68,4.26,3.19,3.19,0,0,1-4.33.76L43.37,34.45h0a1,1,0,0,0-1.16,1.66l11.88,8.32a3.1,3.1,0,0,1,.76,4.33,3.18,3.18,0,0,1-4.32.76l-2.77-1.94-2.88-2v0a3.08,3.08,0,0,0-4.61-3.23l0,0-.62-.44a5,5,0,0,0-1.47-.62h0l1-1.44a3.11,3.11,0,0,0-5.09-3.56l-2.71,3.87c-.75-.11-1.5-.22-2.24-.35h0l.92-1.32a3.09,3.09,0,0,0-.76-4.32,3,3,0,0,0-.6-.3l-2.47,0a3.09,3.09,0,0,0-1.25,1L24.18,36a5.14,5.14,0,0,1-.56,1.06l-.6.85v0l-1.88-.85v0L22,35.92a3.08,3.08,0,0,0,.4-.84,3.13,3.13,0,0,0,.13-1.18,2.8,2.8,0,0,0,0-.3,3.1,3.1,0,0,0-5.6-1.24l-1.11,1.58-.19.27c0,.07-.08.14-.12.21v0l-1.06-.51L9.24,31.46,16.42,9A31.43,31.43,0,0,1,29.15,5.85c-2.49,1.86-4.61,3.54-4.71,3.63a3.23,3.23,0,0,0-1,3.53c.33.79,1.36,2.12,4.63,2.12,3.77,0,9-4.08,10.26-5.15h9a68.16,68.16,0,0,1,10.1,6.55L76.22,29.71a3.1,3.1,0,0,1,1.3,2.82A3.06,3.06,0,0,1,77,34Zm11-1.26H82.24l-.19-.56L73.64,7l-.16-.48L88,3.27Z"
        />
    </g>
</svg>