<svg fill="#1c9ad6" xmlns="http://www.w3.org/2000/svg" viewBox="0 0 66.46 46.86">
    <g class="picto_faq" data-name="picto_faq">
        <path d="M22.72,0A22.09,22.09,0,0,0,5.13,35.45L0,45.44l10.34-5A22.09,22.09,0,1,0,22.72,0ZM26.3,36.61H19.8V30.39h6.5Zm3.32-14.7L27,25.28a3,3,0,0,0-.69,1.82v.35H19.8v-.89a6.36,6.36,0,0,1,1.61-4.29l2.75-3.17a3.59,3.59,0,0,0,1.06-2.16,2.07,2.07,0,0,0-2.32-2.36q-2.32,0-2.32,2.44H14.23a7.69,7.69,0,0,1,2.59-6.07,8.91,8.91,0,0,1,6.07-2.09,9,9,0,0,1,6,2.05A7.57,7.57,0,0,1,31.56,17,8,8,0,0,1,29.61,21.92Z"
        />
        <path d="M62.18,39.61a13.54,13.54,0,0,0-15.27-21,24.34,24.34,0,0,1-6.68,20.48A13.56,13.56,0,0,0,59,42.65l6.34,3.1Z"
        />
    </g>
</svg>