<svg fill="#fff" xmlns="http://www.w3.org/2000/svg" viewBox="0 0 90 53.26">
    <g class="picto_reference" data-name="picto_reference">
        <path d="M28.1,36.71l.6-.72a.91.91,0,0,0,.24-.6V33.24a.44.44,0,0,1,.12-.36l.72-1.43a1.16,1.16,0,0,0-.12-1.08l-.84-.48a1.28,1.28,0,0,0-.72-.24l-1.55.12a.72.72,0,0,1-.48-.12L25,29.06c-.24-.12-.36-.36-.48-.48l-.24-.84a.9.9,0,0,0-.84-.6h-.6a1,1,0,0,1-.72-.36l-.84-1.08a.85.85,0,0,0-.72-.36H20a.44.44,0,0,1-.36-.12l-1.08-.48a.85.85,0,0,0-1.2.36l-1.55,2.63c-.12.12-.12.24-.24.24l-.6.36a.85.85,0,0,0-.36.72v1.67a.85.85,0,0,0,.36.72l1.2.84a.85.85,0,0,1,.36.72v.48a.66.66,0,0,0,.48.72l1.43.84a1.19,1.19,0,0,1,.48.6l.6,3.71v.48L19,41.14a.84.84,0,0,0,.48,1.08.88.88,0,0,1,.48,1l-.24,1.32a1.14,1.14,0,0,0,.24.84l2,2.15c.12.24.36.24.6.24h.12a.94.94,0,0,0,1-1V45.2c0-.24,0-.36-.12-.48l-.84-1a.88.88,0,0,1,.36-1.32l.84-.48c.12-.12.24-.12.36-.24l1.79-2.51a.9.9,0,0,0,.12-.6l-.12-1.79.84.24A1.08,1.08,0,0,0,28.1,36.71Z"
        />
        <path d="M25.35,48.55a23.22,23.22,0,0,1-23.2-23.2,21.52,21.52,0,0,1,1.43-7.89L4.9,20.93a1.19,1.19,0,0,0,.48.6l2.87,1.55a1.19,1.19,0,0,0,1.67-.72l.6-2.39a1.15,1.15,0,0,1,1.08-.84h2.63c.24,0,.36,0,.48-.12l2.87-1.55a1.22,1.22,0,0,0,.6-1v-.12a1.48,1.48,0,0,1,.48-1L22.12,13a.44.44,0,0,1,.36-.12l2.63-.84a1.24,1.24,0,0,0,.72-1.55,1.31,1.31,0,0,1,0-1L26.67,8a1,1,0,0,0-.6-1.55L22.48,4.9c-.12-.12-.24-.12-.48-.12H20a1.7,1.7,0,0,0-.72.24l-2,1.43a.9.9,0,0,1-1,.12L13,5.62h0A22.85,22.85,0,0,1,25.35,2,23.2,23.2,0,0,1,40.42,7.65h0l-.12.12a1.13,1.13,0,0,0-.24,1.55l.24.48a1,1,0,0,1-.36,1.55l-.36.24a1.12,1.12,0,0,0-.12,1.91l1,.72c.12,0,.12.12.24.12L44,15.78a1.09,1.09,0,0,0,1.32-.24,1.09,1.09,0,0,1,.84-.36,10.15,10.15,0,0,1,1.08,2.63l-.6-.24a1.15,1.15,0,0,0-1.08.24l-.48.6a.93.93,0,0,1-1,.24l-1.2-.36a1,1,0,0,1-.72-1,1,1,0,0,0-1.2-1l-2.39.72H36.47a1,1,0,0,0-1,.72l-.24,1a1,1,0,0,1-.36.6l-2,1.43a1.09,1.09,0,0,0-.48,1l.36,3.35a.66.66,0,0,0,.36.6l2.15,1.91a.93.93,0,0,0,1,.24l2.51-.72a1,1,0,0,1,1.08.36l.24.24a1,1,0,0,0,.72.36h.84v.6a8.33,8.33,0,0,1,3-.6,8.74,8.74,0,0,1,3.95,1c.36.24.6.36,1,.6a6,6,0,0,1,1,.84,22,22,0,0,0,.48-4.9A25.77,25.77,0,0,0,25.35,0a25.35,25.35,0,0,0,0,50.7,24.8,24.8,0,0,0,6-.72,15.14,15.14,0,0,1,2.51-3A24.88,24.88,0,0,1,25.35,48.55Z"
        />
        <path d="M44.36,45.08a13,13,0,0,0-13,12.32H57.4A13.09,13.09,0,0,0,44.36,45.08Z"/>
        <circle cx="44.36" cy="36.23" r="5.98"/>
    </g>
</svg>