<svg fill="#1c9ad6" xmlns="http://www.w3.org/2000/svg" viewBox="0 0 65.47 89.48">
    <g class="picto-whoiam" data-name="whoiam">
        <path d="M16.21,24.5A12.25,12.25,0,1,1,28.46,12.25,12.26,12.26,0,0,1,16.21,24.5Zm0-22.27a10,10,0,1,0,10,10A10,10,0,0,0,16.21,2.23Z"
        />
        <path d="M26.34,74V87a.57.57,0,0,1-.11.21H6.2A1,1,0,0,1,6,87.06V60l-.33-.33c-1.77-1.77-3.4-3.85-3.49-4.42v-24c0-1.58,1.9-3.17,6.14-3.17h15.1c5,0,6.68,2.17,6.68,3.17v5.22A22.37,22.37,0,0,1,32.4,35v-3.8c0-2.62-3.12-5.4-8.91-5.4H8.38C2.19,25.82,0,28.73,0,31.22v24c0,1.51,2.26,4.08,3.82,5.67V87.06A2.53,2.53,0,0,0,6,89.48H26.38a2.48,2.48,0,0,0,2.19-2.42V76.24A22,22,0,0,1,26.34,74Z"
        />
        <path d="M43.21,34.46A22.26,22.26,0,1,0,65.47,56.72,22.26,22.26,0,0,0,43.21,34.46Zm-.48,36.38a2.58,2.58,0,0,1,0-5.16,2.58,2.58,0,0,1,0,5.16Zm3.92-15.2a8.24,8.24,0,0,0-2.35,6.11l.08,1H41.12L41,61.7a9.52,9.52,0,0,1,2.56-7.14c1.86-2.19,2.89-3.8,2.89-5.65,0-2.1-1.32-3.51-3.92-3.55a7.34,7.34,0,0,0-4.17,1.28l-1-2.6a10.92,10.92,0,0,1,5.9-1.65c4.74,0,6.89,2.93,6.89,6.06C50.2,51.26,48.63,53.28,46.65,55.64Z"
        />
    </g>
</svg>