<svg fill="#fff" xmlns="http://www.w3.org/2000/svg" viewBox="0 0 50.8 51.27">
    <g class="picto_blog" data-name="picto_blog">
        <path d="M43.72,46.69a.63.63,0,0,0,.42.1,1,1,0,0,0,.94-1.46L41.84,37.7l-5.75,5.75Z"
        />
        <path d="M41.73,10a1,1,0,0,1-1-1V.57h-25a3,3,0,0,0-2.82,1.88l2.72,2.72a3,3,0,0,1,.94,2.2v.31L42,33.2a5.8,5.8,0,0,1,.63.84h0l.1.1h0l4.39,10.35a3.24,3.24,0,0,1-.63,3.45,3,3,0,0,1-2.2.94,2.78,2.78,0,0,1-1.26-.31L32.84,44.18h-.1l-.94-.63-19.24-19V47.63a3.08,3.08,0,0,0,3.14,3.14H47.07a3.08,3.08,0,0,0,3.14-3.14V10ZM44,22.53H35.67a1,1,0,0,1-1-1,1,1,0,0,1,1-1H44a1.12,1.12,0,0,1,1,1A1,1,0,0,1,44,22.53Zm0-6.28H31.48a1,1,0,0,1-1-1,1,1,0,0,1,1-1H44a1.12,1.12,0,0,1,1,1A1,1,0,0,1,44,16.26ZM18.83,37.17H23a1,1,0,0,1,1,1,1,1,0,0,1-1,1H18.83a1,1,0,0,1-1-1A1,1,0,0,1,18.83,37.17Zm8.37,7.32H18.83a1,1,0,0,1-1-1,1,1,0,0,1,1-1h8.37a1,1,0,0,1,1,1A1,1,0,0,1,27.19,44.49Z"
        />
        <path d="M14.33,7.36A1,1,0,0,0,14,6.63L10.25,2.87a4.36,4.36,0,0,0-6,0L1.15,6A4.11,4.11,0,0,0,0,8.93a3.8,3.8,0,0,0,1.26,2.93L5,15.63a1,1,0,0,0,1.46,0L14,8.1A1,1,0,0,0,14.33,7.36Z"
        />
    </g>
</svg>