<svg fill="#fff" xmlns="http://www.w3.org/2000/svg" viewBox="0 0 35.96 49.36">
    <g class="devis_picto" data-name="devis_picto">
        <path d="M33.46,0h-31A2.37,2.37,0,0,0,0,2.31V47a2.37,2.37,0,0,0,2.41,2.31H33.54A2.37,2.37,0,0,0,36,47V2.31A2.44,2.44,0,0,0,33.46,0ZM16.41,43.27a.87.87,0,0,1-.88.85H5.15a.87.87,0,0,1-.88-.85V33.32a.87.87,0,0,1,.88-.85h10.3a.87.87,0,0,1,.88.85v9.95Zm0-14.58a.87.87,0,0,1-.88.85H5.15a.87.87,0,0,1-.88-.85V18.74a.87.87,0,0,1,.88-.85h10.3a.87.87,0,0,1,.88.85v9.95Zm15.2,14.58a.87.87,0,0,1-.88.85H20.35a.87.87,0,0,1-.88-.85V33.32a.87.87,0,0,1,.88-.85h10.3a.87.87,0,0,1,.88.85v9.95Zm0-14.58a.87.87,0,0,1-.88.85H20.35a.87.87,0,0,1-.88-.85V18.74a.87.87,0,0,1,.88-.85h10.3a.87.87,0,0,1,.88.85v9.95Zm0-14.42H4.34V4.47H31.61Z"
        />
        <polygon class="cls-1"
                 points="11.18 20.05 9.57 20.05 9.57 22.98 6.51 22.98 6.51 24.53 9.57 24.53 9.57 27.38 11.18 27.38 11.18 24.53 14.16 24.53 14.16 22.98 11.18 22.98 11.18 20.05"
        />
        <rect class="cls-1" x="6.52" y="37.48" width="7.64" height="1.54"/>
        <rect class="cls-1" x="21.72" y="35.94" width="7.64" height="1.54"/>
        <rect class="cls-1" x="21.72" y="39.1" width="7.64" height="1.54"/>
        <polygon class="cls-1"
                 points="27.67 20.59 25.5 22.6 23.41 20.59 22.28 21.67 24.37 23.75 22.28 25.76 23.41 26.84 25.5 24.84 27.67 26.84 28.8 25.76 26.7 23.75 28.8 21.67 27.67 20.59"
        />
    </g>
</svg>